<?xml version="1.0" standalone="no"?>
<!DOCTYPE svg PUBLIC "-//W3C//DTD SVG 20010904//EN"
 "http://www.w3.org/TR/2001/REC-SVG-20010904/DTD/svg10.dtd">
<svg version="1.0" xmlns="http://www.w3.org/2000/svg"
 width="700.000000pt" height="700.000000pt" viewBox="0 0 700.000000 700.000000"
 preserveAspectRatio="xMidYMid meet">
<metadata>
Created by potrace 1.14, written by Peter Selinger 2001-2017
</metadata>
<g transform="translate(0.000000,700.000000) scale(0.100000,-0.100000)"
fill="#000000" stroke="none">
<path d="M917 6834 c-1 -1 -24 -5 -50 -8 -136 -18 -303 -108 -404 -219 -88
-95 -161 -243 -180 -364 -4 -26 -8 -1265 -8 -2753 0 -2607 1 -2708 19 -2780
63 -255 253 -449 512 -521 75 -22 97 -23 474 -23 217 0 420 3 450 6 104 12
238 65 315 124 32 24 32 24 56 6 72 -56 217 -117 308 -130 60 -8 812 -8 872 0
65 9 165 44 235 84 196 109 332 308 360 529 4 33 7 706 7 1495 0 879 4 1423 9
1405 19 -60 49 -171 54 -195 3 -14 9 -38 15 -55 5 -16 21 -73 34 -125 41 -151
53 -199 79 -295 105 -390 148 -551 152 -567 8 -38 14 -60 88 -333 42 -154 98
-363 126 -465 27 -102 57 -212 66 -245 32 -119 35 -130 38 -145 13 -53 131
-489 150 -556 72 -246 235 -420 471 -500 69 -23 97 -27 200 -28 130 -1 143 1
285 40 52 14 142 38 200 54 58 15 148 39 200 53 52 14 121 33 153 41 260 70
462 294 513 566 15 85 3 291 -20 328 -3 5 -7 19 -10 33 -3 13 -11 49 -20 79
-8 30 -55 206 -104 390 -49 184 -92 344 -95 355 -3 11 -30 112 -60 225 -31
113 -76 282 -102 375 -25 94 -48 177 -50 185 -3 16 -39 148 -75 285 -12 44
-37 136 -55 205 -19 69 -72 269 -120 445 -47 176 -88 328 -90 337 -2 10 -26
100 -53 200 -48 176 -63 232 -67 253 -4 15 -93 343 -130 480 -28 99 -50 184
-100 375 -111 422 -230 854 -250 903 -114 284 -391 462 -695 444 -92 -5 -140
-16 -415 -91 -66 -19 -183 -50 -260 -71 -77 -20 -162 -46 -188 -58 l-48 -20
-47 48 c-97 97 -253 174 -397 193 -33 4 -238 7 -455 7 -341 -2 -404 -4 -459
-19 -78 -21 -170 -63 -230 -104 l-45 -30 -30 23 c-60 45 -159 90 -256 116 -32
9 -169 13 -458 13 -227 1 -414 1 -415 0z m774 -555 c45 -14 86 -54 102 -101 8
-23 12 -133 12 -343 l0 -310 -492 -1 -493 0 0 316 c0 311 0 318 23 360 16 30
37 51 67 67 43 23 47 23 393 23 233 0 362 -4 388 -11z m1553 -12 c47 -27 75
-62 85 -108 4 -19 7 -169 6 -334 l0 -300 -492 -1 -493 0 0 305 c0 170 4 321
10 340 12 41 54 88 95 107 23 10 111 13 390 13 354 1 361 0 399 -22z m1505
-14 c44 -34 61 -67 91 -178 16 -61 51 -195 79 -299 28 -104 51 -190 51 -191 0
-4 -324 -92 -848 -231 -94 -25 -112 -24 -112 1 0 8 -23 99 -51 202 -28 104
-53 196 -54 206 -2 9 -7 22 -11 29 -4 7 -9 63 -10 124 -3 123 6 148 64 178 24
12 460 133 637 176 77 19 122 14 164 -17z m368 -1205 c0 -7 15 -67 33 -133 18
-66 36 -133 40 -150 5 -16 18 -66 30 -110 12 -44 23 -87 25 -96 4 -19 59 -224
75 -279 14 -49 103 -381 135 -505 7 -27 56 -210 108 -405 53 -195 130 -483
172 -640 42 -157 82 -307 90 -335 7 -27 22 -82 33 -122 l19 -71 -76 -21 c-80
-22 -593 -160 -769 -206 -57 -15 -104 -26 -106 -24 -2 4 -41 147 -127 469 -15
58 -69 258 -119 445 -50 187 -105 392 -121 455 -17 63 -37 138 -44 165 -53
196 -117 432 -133 495 -11 41 -37 136 -57 210 -20 74 -39 142 -41 150 -12 49
-82 313 -103 385 -11 38 -19 71 -18 72 3 3 165 47 587 159 195 52 356 97 359
99 7 7 8 6 8 -7z m-3322 -76 c7 -1 10 -496 9 -1465 -1 -804 -2 -1467 -3 -1473
-1 -7 -149 -11 -491 -11 l-490 0 0 1477 0 1476 483 -1 c265 -1 487 -3 492 -3z
m1540 -1472 l0 -1475 -490 0 -490 0 -3 1465 c-1 806 0 1470 2 1476 3 7 155 10
492 10 l489 -1 0 -1475z m2696 -1872 c6 -24 19 -72 29 -108 9 -36 41 -155 70
-264 50 -188 53 -202 41 -245 -22 -84 -55 -106 -222 -150 -153 -40 -208 -55
-383 -102 -82 -22 -165 -40 -185 -41 -59 0 -114 31 -141 81 -14 26 -172 612
-167 617 5 5 918 252 934 253 7 1 17 -18 24 -41z m-4231 -159 c3 -4 5 -149 5
-322 l-1 -314 -27 -42 c-52 -79 -61 -81 -466 -81 -340 0 -356 1 -398 21 -29
14 -52 35 -68 63 l-25 43 0 319 0 320 488 0 c268 0 489 -3 492 -7z m1534 -314
c0 -357 0 -358 -71 -412 l-36 -28 -382 0 -381 0 -36 25 c-73 49 -73 47 -76
411 l-3 325 493 0 493 -1 -1 -320z"/>
</g>
</svg>
